<?xml version="1.0" encoding="UTF-8" standalone="no"?>
<!DOCTYPE svg PUBLIC "-//W3C//DTD SVG 1.1//EN" "http://www.w3.org/Graphics/SVG/1.1/DTD/svg11.dtd">
<svg version="1.1" xmlns="http://www.w3.org/2000/svg" xmlns:xlink="http://www.w3.org/1999/xlink" preserveAspectRatio="xMidYMid meet" viewBox="-3.9836508254873593 12.64332541220719 660.97 540.9999999999999" width="660.97" height="541"><defs><path d="M462.27 319.13C436.71 446.51 312.54 529.18 185.16 503.63C57.77 478.07 -24.9 353.9 0.65 226.52C26.21 99.14 150.38 16.47 277.77 42.02C405.16 67.58 487.83 191.74 462.27 319.13Z" id="lWdQoLIgV"></path><path d="M61.01 182.88L69.78 178.04L65.06 157.62L69.79 134.08L93.3 120.59L121.52 130.69L120.68 159.23L107.52 170.78L83.59 169.03L76.5 185.59L65.99 189.79L53.94 185.59L58.02 170.77L61.01 182.88Z" id="b2ITwhAtG6"></path><path d="M45.62 327.42C41.14 318.92 38.56 298.09 41.07 281.53C43.59 264.97 53.06 251.27 61.71 241.38C67.47 234.79 74.63 228.49 83.18 222.48L107.4 203.13C116.06 196.2 122.18 189.48 125.75 182.97C127.86 179.11 130.3 171.19 129.9 165.73C129.29 157.37 123.5 151.4 120.43 147.91C115.35 142.13 103.48 139.7 98.37 141.24C93.27 142.78 92.38 142.8 88.07 147.13C85.19 150.02 82.52 153.51 80.06 157.61C84.04 150.25 87.46 144.76 90.34 141.14C94.66 135.71 109.93 134.51 118.94 138.8C123.24 140.84 130 143.96 134.89 152.31C136.84 155.63 138.11 160.15 138.7 165.86C138.82 173.08 136.42 180.76 131.49 188.89C126.55 197.02 119.09 205.61 109.11 214.64L79.79 239.38C72.25 246.62 66.56 253.65 62.74 260.48C57.02 270.72 55.04 289.01 55.9 297.66C56.76 306.31 65.96 325.92 72.83 331.82C79.7 337.71 91.22 340.41 101.06 337.48C107.63 335.53 116.34 331.96 127.2 326.8L117.91 350.82C103.24 357.12 89.88 358.32 77.83 354.42C59.76 348.57 50.11 335.92 45.62 327.42Z" id="g2jTAWuHFJ"></path><path d="M289.7 253.6L233.23 197L297.83 185.27L332.95 220.18L347.51 245.02L358.43 229.11L374.68 221.66L387.62 203.28L401.15 185.22L411.17 179.62L421.84 179.3L430.32 200.48L420.64 220.07L398.46 226.42L385.26 247.72L359.2 285.01L289.7 253.6Z" id="b2KU8fj3Ex"></path><path d="M195.55 347.23L224.24 341.62L271.56 346.42L324.67 367.03L325.6 381.48L314.68 394.84L285.13 413.07L239.99 432.23L260.3 437.95L277.58 433.69L303.66 445.38L301.99 457.6L293.31 467.91L276.16 468.62L248.82 467.96L231.94 460.17L206.81 459.47L194.5 447.45L198.35 434.55L202.12 421.94L235.14 401.53L214.95 400.07L174.13 381.44L195.55 347.23Z" id="b8UcHgP3Wr"></path><path d="M292.27 86.05L310.92 92.43L321.06 110.83L348.78 124.39L352.11 142.34L339.14 172.45L312.84 172.57L289.11 201.18L209 229.49L253.34 128.76L292.27 86.05Z" id="b1x5Li8Wam"></path><path d="M423.61 13.32L434.03 14.31L396.02 414.85L385.61 413.86L423.61 13.32Z" id="e7HZYoUFg3"></path><path d="M116.28 352.09L131.68 311.32L184.51 282.22L196.28 237.89L238.53 198.07L308.25 234.17L328.29 254.5L355.37 297.96L375.56 316.66L384.13 310.33L405.85 302.82L419.87 313.22L419.91 324.04L407.53 337.68L391.37 340.64L352.65 336.1L338.78 324.89L309.81 301.95L287.96 321.43L220.66 346.11L200.92 385.54L188.55 430.9L159 449.13L113.86 468.3L105.92 493.97L107.36 509.34L106.49 520.21L139.65 531.56L142.59 543.18L142.51 550.4L138.03 553.64L79.45 543.95L69.63 505.68L80.68 495.53L75.98 458.01L107.95 442.84L123.49 381.72L116.28 352.09Z" id="car0wOe2r"></path><path d="M187.91 233.29L165.89 240.69L184.92 201.74L172.04 210.05L179.75 165.83L167.55 172.46C174.88 160.43 179.47 152.91 181.31 149.91C181.34 149.85 181.27 149.79 181.22 149.83C179.62 151.18 175.62 154.53 169.21 159.9L187.09 121.66L175.86 119.41L201.22 93.96L185.54 96.96L209.94 77.03L240.1 71.77L262.49 59.99L258.61 69.02L284.02 67.42L271.5 74.65L301.8 82.49L293.08 105.17L290.64 124.11L288.02 118.35L282.82 131.86L300.69 164.46L293.56 160.42L300.82 181.34C305.34 194.36 308.35 203.02 309.84 207.33C313.37 217.5 315.01 222.21 314.75 221.46L291.79 226.33L303.23 241.58L300.17 256.85L275.69 230.84L271.98 249.29L254.38 235.71L233.45 258.76L238.16 235.32L214.52 271.16L197.75 251.34L179.43 264.57L187.91 233.29Z" id="bRzGF979E"></path><path d="M240.64 214.54L220.47 220.78L248.21 176.77L234.01 179.33L260.1 142.32L252.66 139.77L268.7 130.12L301.6 83.47L292.89 106.14L290.45 125.09L287.82 119.33L282.63 132.84L300.5 165.44L293.36 161.4L309.24 186.46L303.18 185.97L313.83 196.19L342.66 229.2L312.99 230.43L305.88 265.88L279.19 235.31L277.57 256L254.18 236.69L233.26 259.74L237.96 236.29L240.64 214.54Z" id="b16y0jL09P"></path><path d="M243.98 67.11L253.87 79.43L278.07 93.87L240.8 106.83L231.65 84.56L243.98 67.11Z" id="ahNMR5uqv"></path><path d="M245.5 69.08L248.88 73.21L253.87 79.43L278.07 93.87L250.51 103.45L237.83 85.8L245.5 69.08Z" id="gbRPcU1j3"></path><path d="M518.96 32.11L656.99 45.09L565.49 82.73L648.22 138.29L510.19 125.31L518.96 32.11Z" id="a2zHVZnBjZ"></path><path d="M518.96 32.11L539.79 34.07L531.02 127.27L510.19 125.31L518.96 32.11Z" id="bHYhxYVPF"></path><path d="M423.69 12.64L530.35 22.68L521.59 115.87L414.92 105.84L423.69 12.64Z" id="eHCBtYjfI"></path><path d="M511.17 114.89L521.59 115.87L510.19 125.31L511.17 114.89Z" id="a4pCrd2O7w"></path></defs><g><g><g><use xlink:href="#lWdQoLIgV" opacity="1" fill="#34495e" fill-opacity="1"></use></g><g><use xlink:href="#b2ITwhAtG6" opacity="1" fill="#d35400" fill-opacity="1"></use></g><g><use xlink:href="#g2jTAWuHFJ" opacity="1" fill="#f1c40f" fill-opacity="1"></use></g><g><use xlink:href="#b2KU8fj3Ex" opacity="1" fill="#dab10d" fill-opacity="1"></use></g><g><use xlink:href="#b8UcHgP3Wr" opacity="1" fill="#dab10d" fill-opacity="1"></use></g><g><use xlink:href="#b1x5Li8Wam" opacity="1" fill="#f1c40f" fill-opacity="1"></use></g><g><use xlink:href="#e7HZYoUFg3" opacity="1" fill="#000000" fill-opacity="1"></use></g><g><use xlink:href="#car0wOe2r" opacity="1" fill="#f1c40f" fill-opacity="1"></use></g><g><use xlink:href="#bRzGF979E" opacity="1" fill="#d35400" fill-opacity="1"></use></g><g><use xlink:href="#b16y0jL09P" opacity="1" fill="#ba4a00" fill-opacity="1"></use></g><g><use xlink:href="#ahNMR5uqv" opacity="1" fill="#f1c40f" fill-opacity="1"></use></g><g><use xlink:href="#gbRPcU1j3" opacity="1" fill="#dab10d" fill-opacity="1"></use></g><g><use xlink:href="#a2zHVZnBjZ" opacity="1" fill="#c0392b" fill-opacity="1"></use></g><g><use xlink:href="#bHYhxYVPF" opacity="0.87" fill="#ab3326" fill-opacity="1"></use></g><g><use xlink:href="#eHCBtYjfI" opacity="1" fill="#c0392b" fill-opacity="1"></use></g><g><use xlink:href="#a4pCrd2O7w" opacity="1" fill="#81261d" fill-opacity="1"></use></g></g></g></svg>